<?xml version="1.0" encoding="UTF-8"?>
<svg width="32px" height="51px" viewBox="0 0 32 51" version="1.1" xmlns="http://www.w3.org/2000/svg" xmlns:xlink="http://www.w3.org/1999/xlink">
    <!-- Generator: Sketch 54.1 (76490) - https://sketchapp.com -->
    <title>编组 3</title>
    <desc>Created with Sketch.</desc>
    <defs>
        <linearGradient x1="50.4645086%" y1="-5.17693937%" x2="49.5354914%" y2="106.436036%" id="linearGradient-1">
            <stop stop-color="#5D62FF" offset="0%"></stop>
            <stop stop-color="#E288FF" offset="100%"></stop>
        </linearGradient>
        <linearGradient x1="100%" y1="38.7009158%" x2="0%" y2="61.5569209%" id="linearGradient-2">
            <stop stop-color="#E288FF" offset="0%"></stop>
            <stop stop-color="#5D62FF" offset="100%"></stop>
        </linearGradient>
        <linearGradient x1="100%" y1="37.8150408%" x2="0%" y2="62.4630109%" id="linearGradient-3">
            <stop stop-color="#E288FF" offset="0%"></stop>
            <stop stop-color="#5D62FF" offset="100%"></stop>
        </linearGradient>
        <linearGradient x1="100%" y1="-5.17693937%" x2="0%" y2="106.436036%" id="linearGradient-4">
            <stop stop-color="#E288FF" offset="0%"></stop>
            <stop stop-color="#5D62FF" offset="100%"></stop>
        </linearGradient>
    </defs>
    <g id="页面1" stroke="none" stroke-width="1" fill="none" fill-rule="evenodd">
        <g id="智能搜索-串并案详情" transform="translate(-1107.000000, -609.000000)">
            <g id="编组-3" transform="translate(1107.166667, 609.166667)">
                <polygon id="直线-2" fill="url(#linearGradient-1)" fill-rule="nonzero" points="15.726461 31.25 15.726461 48.5416667 17.3931277 48.5416667 17.3931277 31.25"></polygon>
                <ellipse id="椭圆形" fill="url(#linearGradient-2)" cx="16.7373512" cy="49.1287879" rx="2.51116071" ry="1.13636364"></ellipse>
                <ellipse id="椭圆形" fill="url(#linearGradient-3)" opacity="0.500906808" cx="16.7373512" cy="49.1287879" rx="3.62723214" ry="1.70454545"></ellipse>
                <circle id="椭圆形" fill="url(#linearGradient-4)" cx="15.8333333" cy="15.8333333" r="13.75"></circle>
                <path d="M15.8333333,31.6666667 C24.5778419,31.6666667 31.6666667,24.5778419 31.6666667,15.8333333 C31.6666667,7.08882479 24.5778419,3.90798505e-14 15.8333333,3.90798505e-14 C7.08882479,3.90798505e-14 -3.01980663e-13,7.08882479 -3.01980663e-13,15.8333333 C-3.01980663e-13,24.5778419 7.08882479,31.6666667 15.8333333,31.6666667 Z M15.8333333,30 C8.00929938,30 1.66666667,23.6573673 1.66666667,15.8333333 C1.66666667,8.00929938 8.00929938,1.66666667 15.8333333,1.66666667 C23.6573673,1.66666667 30,8.00929938 30,15.8333333 C30,23.6573673 23.6573673,30 15.8333333,30 Z" id="椭圆形" fill="url(#linearGradient-4)" fill-rule="nonzero"></path>
                <path d="M15.875,11.8367188 C13.7440476,11.8367188 12.0833333,13.6677604 12.0833333,15.815625 L12.0833333,19.6891146 L19.6666667,19.6891146 L19.6666667,15.815625 C19.6666667,13.5795313 17.9220238,11.8367188 15.875,11.8367188 L15.875,11.8367188 Z M15.7910714,11.044375 C15.4892857,11.044375 15.1869048,10.7275521 15.1869048,10.4107292 L15.1869048,8.96697916 C15.1869048,8.65015625 15.4892857,8.33333333 15.7910714,8.33333333 C16.0928571,8.33333333 16.3952381,8.65015625 16.3952381,8.96697916 L16.3952381,10.3929688 C16.3952381,10.7275521 16.1767857,11.044375 15.7910714,11.044375 Z M18.2910714,11.9071875 C18.0560609,11.657461 18.0560609,11.276914 18.2910714,11.0271875 L19.1970238,9.98848958 C19.3021828,9.87103702 19.4552809,9.80349919 19.616369,9.80349919 C19.7774572,9.80349919 19.9305553,9.87103702 20.0357143,9.98848958 C20.2708333,10.2348438 20.2708333,10.6221354 20.0357143,10.8684896 L19.1970238,11.9071875 C18.9785714,12.1535417 18.5928571,12.1535417 18.2910714,11.9071875 Z M13.2910714,11.9071875 C13.5260819,11.657461 13.5260819,11.276914 13.2910714,11.0271875 L12.385119,9.98848958 C12.27996,9.87103702 12.126862,9.8034992 11.9657738,9.8034992 C11.8046856,9.8034992 11.6515876,9.87103702 11.5464286,9.98848958 C11.3114181,10.2382161 11.3114181,10.6187631 11.5464286,10.8684896 L12.4523809,11.9071875 C12.55754,12.0246401 12.710638,12.0921779 12.8717262,12.0921779 C13.0328144,12.0921779 13.1859124,12.0246401 13.2910714,11.9071875 L13.2910714,11.9071875 Z M12.15,14.1432813 C12.2339286,13.8264583 11.9994048,13.4214063 11.6970238,13.3509375 L10.3380952,13.0341146 C10.0363095,12.9458854 9.65059523,13.1922396 9.58333333,13.5096354 C9.58333333,13.8264583 9.7345238,14.1432812 10.0363095,14.2309375 L11.3952381,14.6359896 C11.6970238,14.7064583 12.0833333,14.4601042 12.15,14.1432813 L12.15,14.1432813 Z M19.4988095,14.1432813 C19.4148809,13.8264583 19.65,13.4214063 19.9517857,13.3509375 L21.3107143,13.0341146 C21.6130952,12.9458854 21.9988095,13.1922396 22.0660714,13.5096354 C22.15,13.8264583 21.914881,14.2309375 21.6130952,14.3014063 L20.2541667,14.6182292 C19.9517857,14.7064583 19.5827381,14.4601042 19.4988095,14.1432813 Z M19.9684524,22.0833333 L11.7982143,22.0833333 C11.3785714,22.0833333 11.0261905,21.7138021 11.0261905,21.2738021 C11.0261905,20.8332292 11.3785714,20.4636979 11.7982143,20.4636979 L19.9684524,20.4636979 C20.3880952,20.4636979 20.7404762,20.8332292 20.7404762,21.2738021 C20.7404762,21.7138021 20.4047619,22.0833333 19.9684524,22.0833333 Z" id="Shape" fill="#FFFFFF" fill-rule="nonzero"></path>
            </g>
        </g>
    </g>
</svg>